# xmcd
#
# Track frame offsets:
#	150
#	24464
#	89906
#	112366
#	131963
#	166239
#	211902
#
# Disc length: 3239 seconds
#
# Revision: 1
# Processed by: cddbd v1.5.2PL0 Copyright (c) Steve Scherf et al.
# Submitted via: CDmax 2.0
#
DISCID=680ca507
DTITLE=Eric Clapton - Beauty Surrounds (disc2)
DYEAR=2009
DGENRE=Blues
TTITLE0=Motherless Children
TTITLE1=Little Queen of Spades
TTITLE2=Brfore You Accuse Me
TTITLE3=Wonderful Tonight
TTITLE4=Layla
TTITLE5=Cocaine
TTITLE6=Crossroads
EXTD=Eric Clapton\tguitar, vocals\nDoyle Bramhall II\tguitar, vocals\nChris S
EXTD=tainton\tkeyboards\nWillie Weeks\tbass\nAbe Laboriel, Jr.\tdrums\nMichel
EXTD=le John\tbacking vocals\nSharon White\tbacking vocals\n\nRecorded live a
EXTD=t Budokan, Tokyo, Japan on February 18th, 2009
EXTT0=
EXTT1=
EXTT2=
EXTT3=
EXTT4=
EXTT5=
EXTT6=encore
PLAYORDER=
